Coordinates
version=1
nRows=32
nColumns=12
inDegrees=yes

Units are S.I. units (second, meters, Newtons, ...)
Angles are in degrees

endheader
time	SC_y	SC_z	SC_x	AC_y	AC_z	AC_x	GH_y	GH_z	GH_yy	EL_x	PS_y
       0.0              -26.08          10.88          54.34          63.08          4.947          3.022         -153.9           86.7          72.64          125.6           7.42
   0.01166              -26.08          10.89          54.34          63.09          4.945          3.024         -153.8           86.7          72.65          125.5          7.428
   0.02333              -26.08          10.89          54.34          63.09          4.943          3.027         -153.8           86.7          72.67          125.5          7.437
   0.03499              -26.09          10.89          54.34          63.09          4.941          3.029         -153.8           86.7          72.68          125.5          7.447
   0.04666              -26.09           10.9          54.35          63.09          4.939          3.032         -153.7           86.7          72.69          125.5          7.457
   0.05832               -26.1           10.9          54.35          63.09          4.936          3.035         -153.7           86.7           72.7          125.5          7.468
   0.06999               -26.1          10.91          54.35          63.09          4.934          3.038         -153.6          86.71          72.72          125.4           7.48
   0.08165              -26.11          10.91          54.35          63.09          4.931          3.042         -153.6          86.71          72.73          125.4          7.493
   0.09332              -26.11          10.92          54.36          63.09          4.928          3.046         -153.5          86.71          72.75          125.4          7.506
     0.105              -26.12          10.92          54.36          63.09          4.925          3.049         -153.5          86.71          72.77          125.4          7.521
    0.1166              -26.13          10.93          54.36           63.1          4.922          3.054         -153.4          86.71          72.79          125.4          7.536
    0.1283              -26.14          10.94          54.37           63.1          4.918          3.058         -153.4          86.71          72.81          125.3          7.553
      0.14              -26.14          10.94          54.37           63.1          4.915          3.063         -153.3          86.71          72.83          125.3          7.571
    0.1516              -26.15          10.95          54.38           63.1           4.91          3.068         -153.2          86.71          72.85          125.3           7.59
    0.1633              -26.16          10.96          54.38           63.1          4.906          3.074         -153.1          86.71          72.88          125.2          7.611
     0.175              -26.17          10.97          54.39          63.11          4.901           3.08         -153.1          86.71          72.91          125.2          7.634
    0.1866              -26.18          10.98          54.39          63.11          4.896          3.087         -153.0          86.71          72.94          125.1          7.659
    0.1983              -26.19          10.99           54.4          63.11           4.89          3.094         -152.9          86.72          72.97          125.1          7.686
      0.21              -26.21           11.0           54.4          63.11          4.884          3.103         -152.8          86.72          73.01          125.0          7.715
    0.2216              -26.22          11.01          54.41          63.12          4.877          3.111         -152.6          86.72          73.05          125.0          7.748
    0.2333              -26.24          11.03          54.42          63.12          4.869          3.121         -152.5          86.72          73.09          124.9          7.783
     0.245              -26.25          11.05          54.43          63.13          4.861          3.132         -152.3          86.72          73.14          124.9          7.822
    0.2566              -26.27          11.06          54.44          63.13          4.852          3.143         -152.2          86.72          73.19          124.8          7.865
    0.2683              -26.29          11.08          54.45          63.13          4.842          3.156         -152.0          86.73          73.25          124.7          7.913
    0.2799              -26.32           11.1          54.46          63.14          4.831          3.171         -151.8          86.73          73.32          124.6          7.966
    0.2916              -26.34          11.13          54.47          63.15          4.818          3.187         -151.6          86.73          73.39          124.5          8.025
    0.3033              -26.37          11.15          54.49          63.15          4.804          3.205         -151.3          86.74          73.47          124.4          8.092
    0.3149              -26.41          11.18          54.51          63.16          4.788          3.225         -151.0          86.74          73.56          124.3          8.166
    0.3266              -26.44          11.22          54.52          63.17           4.77          3.248         -150.7          86.74          73.67          124.1          8.251
    0.3383              -26.49          11.26          54.55          63.18           4.75          3.274         -150.4          86.75          73.79          124.0          8.346
    0.3499              -26.54           11.3          54.57          63.19          4.727          3.304         -150.0          86.75          73.92          123.8          8.456
    0.3616              -26.59          11.35           54.6           63.2            4.7          3.338         -149.5          86.76          74.08          123.6          8.581
